<svg width="24" height="24" viewBox="0 0 24 24" fill="currentColor" xmlns="http://www.w3.org/2000/svg">
  <path d="M15 3H13C10.79 3 8.71 4.21 7.6 6.13L5.6 9.6C4.8 11 4.8 12.7 5.6 14.1L7.6 17.6C8.71 19.52 10.79 20.73 13 20.73H15L13.5 17.73H13C11.75 17.73 10.6 17.06 10 16.02L8.5 13.43C7.9 12.4 7.9 11.23 8.5 10.2L10 7.6C10.6 6.57 11.75 5.9 13 5.9H13.5L15 3Z" />
  <path d="M13 11.66C15 11.66 15 9.66 15.5 7.66C16 9.66 16 11.66 18 11.66C16 11.66 16 13.66 15.5 15.66C15 13.66 15 11.66 13 11.66Z" />
  <circle cx="4" cy="11.66" r="1.5" />
  <circle cx="3" cy="7.66" r="1" />
  <circle cx="5" cy="16.66" r="1.5" />
</svg>
